<svg xmlns="http://www.w3.org/2000/svg" xmlns:xlink="http://www.w3.org/1999/xlink" viewBox="0 0 183.97 94"><defs><style>.cls-1,.cls-3{stroke:#000;}.cls-1,.cls-2,.cls-3{stroke-miterlimit:10;}.cls-1{fill:url(#Split_Complementary_6);}.cls-2{font-size:64.4px;fill:#fff;stroke:#fff;}.cls-2,.cls-3{font-family:MyriadPro-Regular, Myriad Pro;}.cls-3{font-size:64.4px;fill:#223759;}</style><linearGradient id="Split_Complementary_6" x1="0.5" y1="47" x2="183.47" y2="47" gradientUnits="userSpaceOnUse"><stop offset="0" stop-color="#f68b1f"/><stop offset="0.49" stop-color="#0080c8"/><stop offset="0.99" stop-color="#f26122"/></linearGradient></defs><title>Asset 9</title><g id="Layer_2" data-name="Layer 2"><g id="Layer_1-2" data-name="Layer 1"><path class="cls-1" d="M177.15,47.5c-59,0-4.39,24-11.49,32.38S148.76,93.5,137.93,93.5H115.16a35.12,35.12,0,0,1-23.19-9,35.08,35.08,0,0,1-23.19,9H46c-21.66,0-60.81-39.1-39.21-41,68.31-6,4.38-30,11.48-38.38S35.18.5,46,.5H68.78A35.08,35.08,0,0,1,92,9.51a35.12,35.12,0,0,1,23.19-9h22.77C159.59.5,198.8,47.5,177.15,47.5Z"/><text class="cls-2" transform="translate(41.47 67.4) scale(1.37 1)">#</text><text class="cls-3" transform="translate(92.39 66.4) scale(1.06 1)">in</text></g></g></svg>